<svg width="608" height="127" viewBox="0 0 608 127" fill="none" xmlns="http://www.w3.org/2000/svg">
<g clip-path="url(#clip0_80_2454)">
<circle cx="64.4142" cy="22.9521" r="11.4169" fill="black"/>
<ellipse cx="53.1379" cy="60.4482" rx="8.87982" ry="8.87982" fill="black"/>
<path d="M19.7329 36.0171C23.8251 32.4441 28.1899 28.8748 28.1899 23.0949C28.1899 15.3105 21.8794 9 14.0949 9C6.31052 9 0 15.3105 0 23.0949C0 28.654 3.70541 32.6602 7.89317 35.7557C12.1217 38.8813 11.9807 46.9154 7.89317 50.7694C5.12949 53.3752 2.53709 56.3678 2.53709 60.4466C2.53709 64.5253 5.06761 67.5851 7.89317 70.1237C12.9674 74.6825 13.3902 94.5563 7.89317 100.47C6.27692 102.209 5.07418 104.399 5.07418 106.96C5.07418 111.864 9.04981 115.84 13.954 115.84C18.8582 115.84 22.8338 111.864 22.8338 106.96C22.8338 104.263 21.4971 101.991 19.7329 100.218C15.0816 95.543 15.0816 75.3872 19.7329 70.295C22.3724 67.4053 25.3709 64.6433 25.3709 60.4466C25.3709 56.2498 22.4926 53.3732 19.7329 50.5981C16.4911 47.3383 15.6454 39.586 19.7329 36.0171Z" fill="black"/>
</g>
<path d="M600.347 103.151C593.62 103.151 588.397 101.252 584.677 97.4529C580.958 93.6542 579.098 88.3122 579.098 81.427V50.3247H567.821V38.2162H569.601C572.609 38.2162 574.943 37.3457 576.605 35.6046C578.267 33.8635 579.098 31.4893 579.098 28.4819V23.4961H592.512V38.2162H607.114V50.3247H592.512V80.8334C592.512 83.0493 592.869 84.9487 593.581 86.5315C594.293 88.0352 595.441 89.2223 597.023 90.0928C598.606 90.8842 600.664 91.28 603.196 91.28C603.829 91.28 604.542 91.2404 605.333 91.1612C606.125 91.0821 606.876 91.003 607.589 90.9238V102.439C606.481 102.597 605.254 102.755 603.909 102.914C602.563 103.072 601.376 103.151 600.347 103.151Z" fill="black"/>
<path d="M503.012 102.44V38.2175H515.832V50.8008L514.289 49.1389C515.872 45.1027 518.405 42.0558 521.887 39.9982C525.369 37.8614 529.405 36.793 533.995 36.793C538.744 36.793 542.938 37.8218 546.579 39.8795C550.219 41.9371 553.068 44.7862 555.126 48.4266C557.183 52.0671 558.212 56.2615 558.212 61.01V102.44H544.917V64.5713C544.917 61.3265 544.323 58.5962 543.136 56.3803C541.949 54.0852 540.247 52.3441 538.031 51.157C535.895 49.8907 533.441 49.2576 530.671 49.2576C527.901 49.2576 525.408 49.8907 523.193 51.157C521.056 52.3441 519.394 54.0852 518.207 56.3803C517.02 58.6753 516.426 61.4057 516.426 64.5713V102.44H503.012Z" fill="black"/>
<path d="M473.914 102.44V38.217H487.328V102.44H473.914ZM473.914 29.4324V14H487.328V29.4324H473.914Z" fill="black"/>
<path d="M427.341 103.865C421.168 103.865 415.51 102.4 410.366 99.4723C405.301 96.5441 401.264 92.5475 398.257 87.4825C395.25 82.4175 393.746 76.6798 393.746 70.2694C393.746 63.7799 395.25 58.0422 398.257 53.0563C401.264 47.9914 405.301 44.0343 410.366 41.1853C415.431 38.2571 421.089 36.793 427.341 36.793C433.672 36.793 439.331 38.2571 444.317 41.1853C449.382 44.0343 453.379 47.9914 456.307 53.0563C459.314 58.0422 460.818 63.7799 460.818 70.2694C460.818 76.7589 459.314 82.5362 456.307 87.6012C453.299 92.6662 449.263 96.6628 444.198 99.591C439.133 102.44 433.514 103.865 427.341 103.865ZM427.341 91.3999C431.14 91.3999 434.503 90.4898 437.432 88.6696C440.36 86.8493 442.655 84.3564 444.317 81.1908C446.058 77.946 446.929 74.3056 446.929 70.2694C446.929 66.2332 446.058 62.6324 444.317 59.4667C442.655 56.3011 440.36 53.8082 437.432 51.9879C434.503 50.1677 431.14 49.2576 427.341 49.2576C423.622 49.2576 420.258 50.1677 417.251 51.9879C414.323 53.8082 411.988 56.3011 410.247 59.4667C408.585 62.6324 407.754 66.2332 407.754 70.2694C407.754 74.3056 408.585 77.946 410.247 81.1908C411.988 84.3564 414.323 86.8493 417.251 88.6696C420.258 90.4898 423.622 91.3999 427.341 91.3999Z" fill="black"/>
<path d="M316.831 126.182V38.2175H329.652V51.5131L328.108 48.4266C330.483 44.7862 333.648 41.9371 337.605 39.8795C341.562 37.8218 346.073 36.793 351.138 36.793C357.232 36.793 362.693 38.2571 367.52 41.1853C372.427 44.1135 376.265 48.1101 379.035 53.1751C381.884 58.2401 383.309 63.9382 383.309 70.2694C383.309 76.6007 381.884 82.2988 379.035 87.3638C376.265 92.4288 372.467 96.4649 367.639 99.4723C362.811 102.4 357.311 103.865 351.138 103.865C346.152 103.865 341.602 102.836 337.486 100.778C333.45 98.7204 330.324 95.7527 328.108 91.8748L330.245 89.3818V126.182H316.831ZM349.832 91.3999C353.631 91.3999 356.995 90.4898 359.923 88.6696C362.851 86.8493 365.146 84.3564 366.808 81.1908C368.549 77.946 369.42 74.3056 369.42 70.2694C369.42 66.2332 368.549 62.6324 366.808 59.4667C365.146 56.3011 362.851 53.8082 359.923 51.9879C356.995 50.1677 353.631 49.2576 349.832 49.2576C346.113 49.2576 342.749 50.1677 339.742 51.9879C336.814 53.8082 334.479 56.3011 332.738 59.4667C331.076 62.6324 330.245 66.2332 330.245 70.2694C330.245 74.3056 331.076 77.946 332.738 81.1908C334.479 84.3564 336.814 86.8493 339.742 88.6696C342.749 90.4898 346.113 91.3999 349.832 91.3999Z" fill="black"/>
<path d="M273.821 102.44V38.2177H286.642V51.1572L285.455 49.2578C286.879 45.0634 289.174 42.056 292.34 40.2358C295.506 38.3364 299.304 37.3867 303.736 37.3867H307.654V49.6139H302.074C297.642 49.6139 294.042 50.9989 291.272 53.7688C288.581 56.4596 287.235 60.3375 287.235 65.4025V102.44H273.821Z" fill="black"/>
<path d="M224.423 103.865C220.07 103.865 216.232 103.113 212.908 101.609C209.663 100.026 207.131 97.8895 205.31 95.1987C203.49 92.4288 202.58 89.184 202.58 85.4644C202.58 81.9822 203.332 78.8562 204.835 76.0862C206.418 73.3163 208.832 70.9817 212.077 69.0823C215.322 67.1829 219.397 65.8375 224.304 65.0461L246.622 61.3661V71.9314L226.916 75.374C223.354 76.0071 220.743 77.1546 219.081 78.8166C217.419 80.3994 216.588 82.4571 216.588 84.9896C216.588 87.4429 217.498 89.461 219.318 91.0438C221.218 92.5475 223.631 93.2993 226.56 93.2993C230.2 93.2993 233.366 92.5079 236.056 90.9251C238.826 89.3423 240.963 87.2451 242.467 84.6334C243.97 81.9426 244.722 78.9749 244.722 75.7301V59.2293C244.722 56.0637 243.535 53.4916 241.161 51.5131C238.866 49.4555 235.779 48.4266 231.902 48.4266C228.34 48.4266 225.214 49.3763 222.523 51.2757C219.912 53.0959 217.973 55.4701 216.707 58.3983L205.548 52.8189C206.735 49.6533 208.674 46.8834 211.365 44.5092C214.055 42.0558 217.181 40.1564 220.743 38.8111C224.383 37.4657 228.221 36.793 232.258 36.793C237.323 36.793 241.794 37.7427 245.672 39.642C249.629 41.5414 252.676 44.1926 254.813 47.5957C257.029 50.9196 258.137 54.7974 258.137 59.2293V102.44H245.316V90.8064L248.046 91.1625C246.543 93.7741 244.604 96.0297 242.229 97.929C239.934 99.8284 237.283 101.292 234.276 102.321C231.348 103.35 228.063 103.865 224.423 103.865Z" fill="black"/>
<path d="M140.186 102.44V14H197.761V26.4646H154.194V53.0559H193.013V65.5205H154.194V102.44H140.186Z" fill="black"/>
<defs>
<clipPath id="clip0_80_2454">
<rect width="76" height="107" fill="white" transform="translate(0 9)"/>
</clipPath>
</defs>
</svg>
